<?xml version="1.0" encoding="UTF-8"?><svg id="_레이어_2" xmlns="http://www.w3.org/2000/svg" viewBox="0 0 555.42 555.42"><defs><style>.cls-1{fill:#010101;}</style></defs><g id="_레이어_1-2"><path class="cls-1" d="M552.49,269.17c-16.18-22.78-103.38-40.74-269.04,6.18,150.3-84,199.25-158.36,194.59-185.9-1.12-6.66-5.39-10.97-12.06-12.09-27.53-4.6-101.93,44.29-185.9,194.59,46.92-165.66,28.93-252.84,6.18-269.01-5.51-3.91-11.57-3.94-17.08,0-22.78,16.18-40.74,103.35,6.18,269.04C191.36,121.68,117.03,72.73,89.46,77.37c-6.66,1.12-10.97,5.42-12.09,12.09-4.63,27.53,44.32,101.9,194.62,185.9-165.69-46.92-252.87-28.96-269.04-6.18-3.94,5.51-3.94,11.57,0,17.08,16.18,22.75,103.35,40.74,269.04-6.18-150.3,83.97-199.25,158.36-194.62,185.9,1.12,6.66,5.42,10.93,12.09,12.06,1.18.21,2.42.3,3.76.3,30.14,0,101.75-50.98,182.14-194.89-46.92,165.66-28.96,252.87-6.18,269.04,2.76,1.97,5.63,2.94,8.54,2.94s5.79-.97,8.54-2.94c22.75-16.18,40.74-103.38-6.18-269.04,80.39,143.91,152,194.89,182.11,194.89,1.36,0,2.6-.09,3.79-.3,6.66-1.12,10.93-5.39,12.06-12.06,4.66-27.53-44.29-101.93-194.59-185.9,165.66,46.92,252.87,28.93,269.04,6.18,3.91-5.51,3.91-11.57,0-17.08Z"/></g></svg>