<svg width="30" height="30" viewBox="0 0 30 30" fill="none" xmlns="http://www.w3.org/2000/svg">
<g clip-path="url(#clip0_17_1365)">
<mask id="mask0_17_1365" style="mask-type:luminance" maskUnits="userSpaceOnUse" x="0" y="0" width="30" height="30">
<path d="M30 0H0V30H30V0Z" fill="white"/>
</mask>
<g mask="url(#mask0_17_1365)">
<path d="M23 0H7C3.13401 0 0 3.13401 0 7V23C0 26.866 3.13401 30 7 30H23C26.866 30 30 26.866 30 23V7C30 3.13401 26.866 0 23 0Z" fill="#48C4D6"/>
<g filter="url(#filter0_d_17_1365)">
<g filter="url(#filter1_d_17_1365)">
<path d="M13.4696 21.8901L5.55957 13.6501L8.43957 10.8801L13.4696 16.1101L23.5596 5.61011L26.4396 8.39011L13.4696 21.8901Z" fill="white"/>
</g>
</g>
</g>
</g>
<defs>
<filter id="filter0_d_17_1365" x="1.55957" y="5.61011" width="28.8799" height="24.28" filterUnits="userSpaceOnUse" color-interpolation-filters="sRGB">
<feFlood flood-opacity="0" result="BackgroundImageFix"/>
<feColorMatrix in="SourceAlpha" type="matrix" values="0 0 0 0 0 0 0 0 0 0 0 0 0 0 0 0 0 0 127 0" result="hardAlpha"/>
<feOffset dy="4"/>
<feGaussianBlur stdDeviation="2"/>
<feComposite in2="hardAlpha" operator="out"/>
<feColorMatrix type="matrix" values="0 0 0 0 0.282353 0 0 0 0 0.768627 0 0 0 0 0.839216 0 0 0 0.5 0"/>
<feBlend mode="normal" in2="BackgroundImageFix" result="effect1_dropShadow_17_1365"/>
<feBlend mode="normal" in="SourceGraphic" in2="effect1_dropShadow_17_1365" result="shape"/>
</filter>
<filter id="filter1_d_17_1365" x="1.55957" y="5.61011" width="28.8799" height="24.28" filterUnits="userSpaceOnUse" color-interpolation-filters="sRGB">
<feFlood flood-opacity="0" result="BackgroundImageFix"/>
<feColorMatrix in="SourceAlpha" type="matrix" values="0 0 0 0 0 0 0 0 0 0 0 0 0 0 0 0 0 0 127 0" result="hardAlpha"/>
<feOffset dy="4"/>
<feGaussianBlur stdDeviation="2"/>
<feComposite in2="hardAlpha" operator="out"/>
<feColorMatrix type="matrix" values="0 0 0 0 0 0 0 0 0 0 0 0 0 0 0 0 0 0 0.25 0"/>
<feBlend mode="normal" in2="BackgroundImageFix" result="effect1_dropShadow_17_1365"/>
<feBlend mode="normal" in="SourceGraphic" in2="effect1_dropShadow_17_1365" result="shape"/>
</filter>
<clipPath id="clip0_17_1365">
<rect width="30" height="30" fill="white"/>
</clipPath>
</defs>
</svg>
