<?xml version="1.0" encoding="UTF-8"?><svg id="_레이어_2" xmlns="http://www.w3.org/2000/svg" viewBox="0 0 3165.14 1999.64"><defs><style>.cls-1{fill:none;stroke:#aaf3f9;stroke-miterlimit:10;}</style></defs><g id="Layer_1"><path class="cls-1" d="M.47,386.59S191.34-28.66,916.16,859.76c681.64,835.5,3259.76,1542.72,1598.5,873.68"/><path class="cls-1" d="M.47,395.83S195.19-30.31,920.19,852.81c680.52,830.08,3233.92,1533.6,1599.88,872.9"/><path class="cls-1" d="M.47,405.08S199.03-31.97,924.22,845.86c679.41,824.66,3208.08,1524.47,1601.27,872.13"/><path class="cls-1" d="M.47,414.32S202.88-33.62,928.25,838.91c678.29,819.24,3182.25,1515.34,1602.66,871.36"/><path class="cls-1" d="M.47,423.57S206.72-35.27,932.28,831.96c677.17,813.83,3156.41,1506.22,1604.05,870.58"/><path class="cls-1" d="M.47,432.81S210.56-36.93,936.32,825.01c676.06,808.41,3130.58,1497.09,1605.44,869.81"/><path class="cls-1" d="M.47,442.06S216.13-40.04,940.35,818.06c676.55,801.63,3104.74,1487.96,1606.82,869.03"/><path class="cls-1" d="M.47,451.3S220.25-41.93,944.38,811.11c675.69,795.99,3078.91,1478.84,1608.21,868.26"/><path class="cls-1" d="M.47,460.55S224.37-43.83,948.41,804.16c674.83,790.35,3053.07,1469.71,1609.6,867.48"/><path class="cls-1" d="M.47,469.79S228.48-45.72,952.44,797.21c673.96,784.71,3027.24,1460.59,1610.99,866.71"/><path class="cls-1" d="M.47,479.03S232.58-47.62,956.47,790.26c673.08,779.07,3001.4,1451.46,1612.38,865.93"/><path class="cls-1" d="M.47,488.28S236.69-49.51,960.51,783.31c672.2,773.43,2975.57,1442.33,1613.77,865.16"/><path class="cls-1" d="M.47,497.52S240.78-51.4,964.54,776.36c671.32,767.8,2949.73,1433.21,1615.15,864.39"/><path class="cls-1" d="M.47,506.77S244.88-53.3,968.57,769.41c670.43,762.16,2923.89,1424.08,1616.54,863.61"/><path class="cls-1" d="M.47,516.01S248.97-55.19,972.6,762.47c669.54,756.53,2898.06,1414.96,1617.93,862.84"/><path class="cls-1" d="M.47,525.26S253.05-57.08,976.63,755.52c668.64,750.9,2872.22,1405.83,1619.32,862.06"/><path class="cls-1" d="M.47,534.5S257.13-58.97,980.66,748.57c667.74,745.27,2846.39,1396.7,1620.71,861.29"/><path class="cls-1" d="M.47,543.75S261.21-60.86,984.7,741.62c666.83,739.64,2820.55,1387.58,1622.09,860.51"/><path class="cls-1" d="M.47,552.99S265.28-62.75,988.73,734.67c665.92,734.01,2794.72,1378.45,1623.48,859.74"/><path class="cls-1" d="M.47,562.24S269.35-64.63,992.76,727.72c665.01,728.39,2768.88,1369.32,1624.87,858.97"/><path class="cls-1" d="M.47,571.48S273.41-66.52,996.79,720.77c664.09,722.76,2743.05,1360.2,1626.26,858.19"/><path class="cls-1" d="M.47,580.73S277.47-68.4,1000.82,713.82c663.17,717.14,2717.21,1351.07,1627.65,857.42"/><path class="cls-1" d="M.47,589.97s281.06-660.26,1004.39,116.9c662.24,711.52,2691.37,1341.95,1629.04,856.64"/><path class="cls-1" d="M.47,599.22s285.11-671.39,1008.42,100.7c661.3,705.9,2665.54,1332.82,1630.42,855.87"/><path class="cls-1" d="M.47,608.46s289.15-682.51,1012.45,84.51c660.36,700.29,2639.7,1323.69,1631.81,855.09"/><path class="cls-1" d="M.47,617.71s293.19-693.64,1016.48,68.32c659.42,694.67,2613.87,1314.57,1633.2,854.32"/><path class="cls-1" d="M.47,626.95s297.23-704.76,1020.51,52.12c658.47,689.06,2588.03,1305.44,1634.59,853.54"/><path class="cls-1" d="M.47,636.2s301.26-715.88,1024.55,35.93c657.52,683.45,2562.2,1296.32,1635.98,852.77"/><path class="cls-1" d="M.47,645.44s305.28-727,1028.58,19.73c656.56,677.84,2536.36,1287.19,1637.36,852"/><path class="cls-1" d="M.47,654.69s309.3-738.12,1032.61,3.54c655.6,672.23,2510.53,1278.06,1638.75,851.22"/><path class="cls-1" d="M.47,663.93s313.32-749.24,1036.64-12.65c654.63,666.63,2484.69,1268.94,1640.14,850.45"/><path class="cls-1" d="M.47,673.18s317.33-760.35,1040.67-28.85c653.66,661.03,2458.86,1259.81,1641.53,849.67"/><path class="cls-1" d="M.47,682.42s321.33-771.46,1044.7-45.04c652.68,655.43,2433.02,1250.68,1642.92,848.9"/><path class="cls-1" d="M.47,691.67s325.33-782.58,1048.74-61.24c651.69,649.83,2407.18,1241.56,1644.31,848.12"/><path class="cls-1" d="M.47,700.91s329.33-793.68,1052.77-77.43c650.71,644.24,2381.35,1232.43,1645.69,847.35"/><path class="cls-1" d="M.47,710.16s333.32-804.79,1056.8-93.62c649.71,638.65,2355.51,1223.31,1647.08,846.57"/><path class="cls-1" d="M.47,719.4s337.3-815.89,1060.83-109.82c648.71,633.06,2329.68,1214.18,1648.47,845.8"/><path class="cls-1" d="M.47,728.64s341.28-827,1064.86-126.01c647.71,627.48,2303.84,1205.05,1649.86,845.03"/><path class="cls-1" d="M.47,737.89S345.72-100.21,1069.36,595.68c646.7,621.89,2278.01,1195.93,1651.25,844.25"/><path class="cls-1" d="M.47,747.13S349.69-102.06,1073.39,588.73c645.68,616.32,2252.17,1186.8,1652.64,843.48"/><path class="cls-1" d="M.47,756.38S353.65-103.91,1077.43,581.78c644.66,610.74,2226.34,1177.67,1654.02,842.7"/><path class="cls-1" d="M.47,765.62S357.61-105.75,1081.46,574.83c643.64,605.17,2200.5,1168.55,1655.41,841.93"/><path class="cls-1" d="M.47,774.87S361.56-107.59,1085.49,567.89c642.6,599.6,2174.66,1159.42,1656.8,841.15"/><path class="cls-1" d="M.47,784.11S365.5-109.43,1089.52,560.94c641.57,594.03,2148.83,1150.3,1658.19,840.38"/><path class="cls-1" d="M.47,793.36S369.44-111.27,1093.55,553.99c640.53,588.47,2122.99,1141.17,1659.58,839.6"/><path class="cls-1" d="M.47,802.6S373.38-113.1,1097.58,547.04c639.48,582.91,2097.16,1132.04,1660.96,838.83"/><path class="cls-1" d="M.47,811.85S377.31-114.93,1101.62,540.09c638.42,577.35,2071.32,1122.92,1662.35,838.06"/><path class="cls-1" d="M.47,821.09S381.23-116.76,1105.65,533.14c637.37,571.8,2045.49,1113.79,1663.74,837.28"/><path class="cls-1" d="M.47,830.34S385.15-118.58,1109.68,526.19c636.3,566.25,2019.65,1104.67,1665.13,836.51"/><path class="cls-1" d="M.47,839.58S389.06-120.4,1113.71,519.24c635.23,560.71,1993.82,1095.54,1666.52,835.73"/><path class="cls-1" d="M.47,848.83S392.96-122.22,1117.74,512.29c634.16,555.17,1967.98,1086.41,1667.91,834.96"/><path class="cls-1" d="M.47,858.07S396.86-124.03,1121.77,505.34c633.08,549.63,1942.14,1077.29,1669.29,834.18"/><path class="cls-1" d="M.47,867.32S400.75-125.83,1125.81,498.39c631.99,544.1,1916.31,1068.16,1670.68,833.41"/><path class="cls-1" d="M.47,876.56S404.64-127.63,1129.84,491.44c630.9,538.58,1890.47,1059.03,1672.07,832.64"/><path class="cls-1" d="M.47,885.81S408.52-129.43,1133.87,484.49c629.8,533.05,1864.64,1049.91,1673.46,831.86"/><path class="cls-1" d="M.47,895.05S412.4-131.22,1137.9,477.54c628.7,527.54,1838.8,1040.78,1674.85,831.09"/><path class="cls-1" d="M.47,904.3S416.26-133.01,1141.93,470.6c627.59,522.02,1812.97,1031.66,1676.23,830.31"/><path class="cls-1" d="M.47,913.54S420.13-134.79,1145.96,463.65c626.47,516.52,1787.13,1022.53,1677.62,829.54"/><path class="cls-1" d="M.47,922.79S423.98-136.57,1150,456.7c625.35,511.01,1761.3,1013.4,1679.01,828.76"/><path class="cls-1" d="M.47,932.03S427.83-138.34,1154.03,449.75c624.22,505.51,1735.46,1004.28,1680.4,827.99"/><path class="cls-1" d="M.47,941.28S431.68-140.11,1158.06,442.8c623.09,500.02,1709.63,995.15,1681.79,827.21"/><path class="cls-1" d="M.47,950.52S435.52-141.87,1162.09,435.85c621.96,494.53,1683.79,986.03,1683.18,826.44"/><path class="cls-1" d="M.47,959.76S439.35-143.63,1166.12,428.9c620.81,489.05,1657.95,976.9,1684.56,825.67"/><path class="cls-1" d="M.47,969.01S443.17-145.37,1170.15,421.95c619.66,483.58,1632.12,967.77,1685.95,824.89"/><path class="cls-1" d="M.47,978.25S446.99-147.12,1174.19,415c618.51,478.11,1606.28,958.65,1687.34,824.12"/><path class="cls-1" d="M.47,987.5S450.81-148.85,1178.22,408.05c617.35,472.64,1580.45,949.52,1688.73,823.34"/><path class="cls-1" d="M.47,996.74S454.61-150.58,1182.25,401.1c616.19,467.18,1554.61,940.39,1690.12,822.57"/><path class="cls-1" d="M.47,1005.99S458.41-152.3,1186.28,394.15c615.02,461.73,1528.78,931.27,1691.5,821.79"/><path class="cls-1" d="M.47,1015.23S462.21-154.02,1190.31,387.2c613.84,456.28,1502.94,922.14,1692.89,821.02"/><path class="cls-1" d="M.47,1024.48S465.99-155.72,1194.34,380.25c612.66,450.84,1477.11,913.02,1694.28,820.24"/><path class="cls-1" d="M.47,1033.72S469.78-157.42,1198.38,373.31c611.47,445.41,1451.27,903.89,1695.67,819.47"/><path class="cls-1" d="M.47,1042.97S473.55-159.12,1202.41,366.36c610.28,439.98,1425.43,894.76,1697.06,818.7"/><path class="cls-1" d="M.47,1052.21S477.32-160.8,1206.44,359.41c609.08,434.56,1399.6,885.64,1698.45,817.92"/><path class="cls-1" d="M.47,1061.46S481.08-162.48,1210.47,352.46c607.88,429.15,1373.76,876.51,1699.83,817.15"/><path class="cls-1" d="M.47,1070.7S484.84-164.14,1214.5,345.51c606.67,423.74,1347.93,867.39,1701.22,816.37"/><path class="cls-1" d="M.47,1079.95S488.59-165.8,1218.53,338.56c605.46,418.35,1322.09,858.26,1702.61,815.6"/><path class="cls-1" d="M.47,1089.19S492.33-167.45,1222.57,331.61c604.24,412.95,1296.26,849.13,1704,814.82"/><path class="cls-1" d="M.47,1098.44S496.07-169.09,1226.6,324.66c603.02,407.57,1270.42,840.01,1705.39,814.05"/><path class="cls-1" d="M.47,1107.68S499.81-170.72,1230.63,317.71c601.79,402.2,1244.59,830.88,1706.77,813.27"/><path class="cls-1" d="M.47,1116.93S503.53-172.34,1234.66,310.76c600.55,396.83,1218.75,821.75,1708.16,812.5"/><path class="cls-1" d="M.47,1126.17S507.25-173.96,1238.69,303.81c599.32,391.47,1192.92,812.63,1709.55,811.73"/><path class="cls-1" d="M.47,1135.42S510.97-175.56,1242.72,296.86c598.07,386.12,1167.08,803.5,1710.94,810.95"/><path class="cls-1" d="M.47,1144.66S514.67-177.15,1246.76,289.91c596.83,380.77,1141.24,794.38,1712.33,810.18"/><path class="cls-1" d="M.47,1153.91S518.38-178.73,1250.79,282.96c595.58,375.44,1115.41,785.25,1713.72,809.4"/><path class="cls-1" d="M.47,1163.15S522.07-180.3,1254.82,276.02c594.32,370.11,1089.57,776.12,1715.1,808.63"/><path class="cls-1" d="M.47,1172.4S525.77-181.86,1258.85,269.07c593.06,364.79,1063.74,767,1716.49,807.85"/><path class="cls-1" d="M.47,1181.64S529.45-183.4,1262.88,262.12c591.8,359.48,1037.9,757.87,1717.88,807.08"/><path class="cls-1" d="M.47,1190.89S533.13-184.94,1266.91,255.17c590.53,354.18,1012.07,748.75,1719.27,806.31"/><path class="cls-1" d="M.47,1200.13S536.81-186.46,1270.95,248.22c589.25,348.89,986.23,739.62,1720.66,805.53"/><path class="cls-1" d="M.47,1209.37S540.48-187.97,1274.98,241.27c587.98,343.61,960.4,730.49,1722.05,804.76"/><path class="cls-1" d="M.47,1218.62S544.14-189.47,1279.01,234.32c586.7,338.34,934.56,721.37,1723.43,803.98"/><path class="cls-1" d="M.47,1227.86S547.8-190.95,1283.04,227.37c585.42,333.08,908.72,712.24,1724.82,803.21"/><path class="cls-1" d="M.47,1237.11S551.46-192.42,1287.07,220.42c584.13,327.83,882.89,703.11,1726.21,802.43"/><path class="cls-1" d="M.47,1246.35S555.11-193.88,1291.1,213.47c582.84,322.58,857.05,693.99,1727.6,801.66"/><path class="cls-1" d="M.47,1255.6S558.75-195.32,1295.14,206.52c581.55,317.35,831.22,684.86,1728.99,800.88"/><path class="cls-1" d="M.47,1264.84S562.4-196.75,1299.17,199.57c580.25,312.13,805.38,675.74,1730.37,800.11"/><path class="cls-1" d="M.47,1274.09S566.03-198.17,1303.2,192.62c578.95,306.92,779.55,666.61,1731.76,799.34"/><path class="cls-1" d="M.47,1283.33S569.67-199.57,1307.23,185.67c577.65,301.72,753.71,657.48,1733.15,798.56"/><path class="cls-1" d="M.47,1292.58S573.3-200.95,1311.26,178.73c576.35,296.53,727.88,648.36,1734.54,797.79"/><path class="cls-1" d="M.47,1301.82S576.92-202.32,1315.29,171.78c575.04,291.35,702.04,639.23,1735.93,797.01"/><path class="cls-1" d="M.47,1311.07S580.54-203.68,1319.33,164.83c573.74,286.18,676.21,630.11,1737.32,796.24"/><path class="cls-1" d="M.47,1320.31S584.16-205.02,1323.36,157.88c572.43,281.02,650.37,620.98,1738.7,795.46"/><path class="cls-1" d="M.47,1329.56S587.78-206.34,1327.39,150.93c571.12,275.88,624.53,611.85,1740.09,794.69"/><path class="cls-1" d="M.47,1338.8S591.39-207.64,1331.42,143.98c569.81,270.74,598.7,602.73,1741.48,793.91"/><path class="cls-1" d="M.47,1348.05S595-208.93,1335.45,137.03c568.49,265.62,572.86,593.6,1742.87,793.14"/><path class="cls-1" d="M.47,1357.29S598.61-210.2,1339.48,130.08c567.18,260.51,547.03,584.47,1744.26,792.37"/><path class="cls-1" d="M.47,1366.54S602.22-211.46,1343.52,123.13c565.87,255.41,521.19,575.35,1745.64,791.59"/><path class="cls-1" d="M.47,1375.78S605.82-212.69,1347.55,116.18c564.56,250.32,495.36,566.22,1747.03,790.82"/><path class="cls-1" d="M.47,1385.03S609.43-213.91,1351.58,109.23c563.24,245.24,469.52,557.1,1748.42,790.04"/><path class="cls-1" d="M.47,1394.27S613.03-215.11,1355.61,102.28c561.93,240.18,443.69,547.97,1749.81,789.27"/><path class="cls-1" d="M.47,1403.52S616.63-216.29,1359.64,95.33c560.62,235.13,417.85,538.84,1751.2,788.49"/><path class="cls-1" d="M.47,1412.76S620.23-217.46,1363.67,88.38c559.31,230.09,392.01,529.72,1752.59,787.72"/><path class="cls-1" d="M.47,1422.01S623.83-218.6,1367.71,81.44c558,225.06,366.18,520.59,1753.97,786.95"/><path class="cls-1" d="M.47,1431.25S627.43-219.73,1371.74,74.49c556.69,220.05,340.34,511.47,1755.36,786.17"/><path class="cls-1" d="M.47,1440.5S631.03-220.83,1375.77,67.54c555.38,215.05,314.51,502.34,1756.75,785.4"/><path class="cls-1" d="M.47,1449.74S634.63-221.91,1379.8,60.59c554.08,210.06,288.67,493.21,1758.14,784.62"/><path class="cls-1" d="M.47,1458.98S638.24-222.98,1383.83,53.64c552.77,205.08,262.84,484.09,1759.53,783.85"/><path class="cls-1" d="M.47,1468.23S641.84-224.02,1387.86,46.69c551.48,200.12,237,474.96,1760.91,783.07"/><path class="cls-1" d="M.47,1477.47S644.98-223.73,1391.9,39.74c549.83,196.14,211.17,465.83,1762.3,782.3"/><path class="cls-1" d="M.47,1486.72S648.83-225.38,1395.93,32.79c548.72,190.72,185.33,456.71,1763.69,781.52"/><path class="cls-1" d="M.47,1495.96S652.67-227.03,1399.96,25.84c547.6,185.3,159.5,447.58,1765.08,780.75"/></g></svg>