<svg width="237" height="236" viewBox="0 0 237 236" fill="none" xmlns="http://www.w3.org/2000/svg">
<g clip-path="url(#clip0_357_2)">
<path d="M132.27 152.21C131.37 151.14 126.48 145.66 125.61 145.64C98.8203 160.54 61.9703 160.42 36.2803 143.17C11.6203 126.63 0.840279 107.25 0.0302788 77.1999C-2.34972 -11.3301 127.77 -26.3201 159.42 45.7699C169.56 68.8699 166.07 100.15 151.98 120.91C151.27 121.95 147.36 126.49 147.48 127.12L154.78 134.39C160 133.57 165.51 134.28 169.63 137.8L233.05 201.23C247.56 218.95 217.98 246.1 200.95 231.46L137.9 168.03C135.97 165.64 134.67 162.31 134.37 159.25C133.92 154.76 135.35 155.9 132.27 152.21ZM75.7103 10.6899C5.49028 15.3199 -13.9797 98.4899 52.6603 125.3C96.2103 142.82 159.72 116.03 152.59 63.0499C147.66 26.3899 109.5 8.45991 75.7103 10.6899ZM139.96 119.9C140.72 120.96 141.05 121.84 142.22 120.85C143.45 119.8 145.71 116.37 146.69 114.87C147.61 113.46 148.76 111.79 149.29 110.2C146.36 113.48 143.71 117.6 139.97 119.91L139.96 119.9ZM117.19 134.45C82.5503 148.9 39.8303 139.94 15.7203 110.95C16.2403 112.56 17.4003 114.19 18.3203 115.62C35.3303 142.24 71.4403 153.23 101.53 146.21C107.89 144.73 113.81 142.13 119.81 139.67L117.19 134.45ZM141.95 141.29L146.66 137.27L134.36 124.91C130.82 127.56 122.99 129.51 126.59 135.32L137.54 146.38L141.95 141.3V141.29Z" fill="#FF3B05"/>
<path d="M77.95 19.6499C80.37 19.5099 85.09 18.9899 87 20.4599C89.91 22.6999 89.04 27.7299 85.59 28.7799C82.55 29.6999 76.68 29.5099 73.06 30.0499C50.63 33.3899 33 46.2799 29.91 69.7199C29.66 71.5799 30.36 72.9699 28.96 74.7399C26.51 77.8399 20.84 76.5999 20.23 72.6799C19.48 67.8299 21.55 59.2299 23.38 54.6199C32.12 32.5899 55.17 20.9799 77.95 19.6499Z" fill="#FF3B05"/>
</g>
<defs>
<clipPath id="clip0_357_2">
<rect width="236.93" height="235.63" fill="white"/>
</clipPath>
</defs>
</svg>
