<?xml version="1.0" encoding="UTF-8"?><svg id="_레이어_2" xmlns="http://www.w3.org/2000/svg" xmlns:xlink="http://www.w3.org/1999/xlink" viewBox="0 0 265 126.73"><defs><style>.cls-1{fill:none;}.cls-2{fill:#ff4410;}.cls-3{clip-path:url(#clippath);}</style><clipPath id="clippath"><rect class="cls-1" width="265" height="126.73"/></clipPath></defs><g id="_레이어_1-2"><g class="cls-3"><path class="cls-2" d="M13.24,26.86c3.35,1.15,7.27,1.73,11.75,1.73s8.4-.58,11.75-1.73c3.35-1.15,5.95-2.79,7.81-4.92,1.86-2.13,2.78-4.64,2.78-7.54s-.93-5.35-2.78-7.5c-1.86-2.15-4.47-3.8-7.84-4.96-3.37-1.15-7.28-1.73-11.72-1.73s-8.34.58-11.71,1.73c-3.37,1.15-5.99,2.81-7.84,4.96-1.86,2.15-2.78,4.65-2.78,7.5s.93,5.41,2.78,7.54c1.86,2.13,4.46,3.77,7.81,4.92h-.01ZM14.4,9.03c2.72-1.27,6.25-1.9,10.59-1.9s7.87.63,10.56,1.9c2.69,1.27,4.04,3.06,4.04,5.37s-1.35,4.04-4.04,5.33c-2.69,1.29-6.21,1.94-10.56,1.94s-7.88-.65-10.59-1.94c-2.72-1.29-4.07-3.07-4.07-5.33s1.36-4.1,4.07-5.37Z"/><path class="cls-2" d="M.07,39.93h21.12v13.45h7.54v-13.45h21.12v-7.2H.07v7.2Z"/><path class="cls-2" d="M73.75,21.73h-20.99v27.57h20.17c2.49,0,4.92-.21,7.3-.64,2.38-.43,4.31-1.05,5.81-1.87v-6.93c-1.59.72-3.54,1.32-5.87,1.8-2.33.47-4.65.71-6.96.71h-13.04v-13.72h20.85V1.63h-28.32v7h21.05v13.11h0Z"/><path class="cls-2" d="M97.18,0h-7.33v52.16h7.33V0Z"/><path class="cls-2" d="M103.57,38.92v12.83h44.08v-5.09h-36.88v-3.4h36.2v-12.7h-43.54v5.03h36.27v3.33h-36.13Z"/><path class="cls-2" d="M150.09,21.19h-49.78v5.77h49.78v-5.77Z"/><path class="cls-2" d="M147.37,11.88h-36.4v-5.77h35.86V.41h-43.13v17.18h43.67v-5.71Z"/><path class="cls-2" d="M198.78,0h-7.33v52.16h7.33V0Z"/><path class="cls-2" d="M160.72,31.92c2.38,1.4,5.06,2.11,8.05,2.11s5.66-.7,8.01-2.11c2.35-1.4,4.19-3.36,5.5-5.88,1.31-2.51,1.97-5.4,1.97-8.66s-.66-6.08-1.97-8.59c-1.31-2.51-3.15-4.47-5.5-5.88-2.35-1.4-5.03-2.11-8.01-2.11s-5.67.7-8.05,2.11c-2.38,1.4-4.22,3.35-5.54,5.84-1.31,2.49-1.97,5.37-1.97,8.62s.66,6.15,1.97,8.66,3.16,4.47,5.54,5.88h0ZM162.65,10.49c1.54-1.83,3.58-2.75,6.11-2.75s4.52.92,6.08,2.75c1.56,1.83,2.34,4.13,2.34,6.89s-.77,5.13-2.31,6.96c-1.54,1.83-3.58,2.75-6.11,2.75s-4.57-.91-6.11-2.72c-1.54-1.81-2.31-4.14-2.31-7s.77-5.06,2.31-6.89h0Z"/><path class="cls-2" d="M181.33,48.69c2.72-.41,4.87-1,6.45-1.77v-7.13c-1.59.77-3.69,1.35-6.32,1.73s-5.48.58-8.56.58h-21.26v7.2h20.85c3.17,0,6.11-.2,8.83-.61h0Z"/><path class="cls-2" d="M27.78,73.62v28.46h6.92v-12.5h6.8v14.19h6.92v-30.42h-6.92v9.17h-6.8v-8.9h-6.92Z"/><path class="cls-2" d="M42.89,107c-4.14-1.7-9.61-2.55-16.4-2.55s-12.26.85-16.4,2.55c-4.14,1.7-6.21,4.4-6.21,8.12s2.08,6.42,6.25,8.12c4.17,1.7,9.62,2.55,16.37,2.55s12.2-.85,16.37-2.55c4.17-1.7,6.25-4.4,6.25-8.12s-2.07-6.42-6.21-8.12h-.02ZM37.08,118.51c-2.81.73-6.34,1.09-10.59,1.09s-7.84-.36-10.63-1.09c-2.78-.72-4.18-1.86-4.18-3.4s1.39-2.67,4.18-3.4c2.78-.72,6.33-1.09,10.63-1.09s7.79.36,10.59,1.09c2.81.72,4.21,1.86,4.21,3.4s-1.4,2.67-4.21,3.4Z"/><path class="cls-2" d="M13.65,91.96l9.03,9.1,4.75-4.96-11.34-11.14c.68-3.26,1.02-6.88,1.02-10.87l-7-.27c0,6.02-.86,10.95-2.58,14.77-1.72,3.83-4.23,6.15-7.54,6.96v6.93c3.03-.36,5.7-1.46,8.01-3.29,2.31-1.83,4.19-4.25,5.64-7.23h.01Z"/><path class="cls-2" d="M98.34,73.35h-7.34v30.63h7.34v-13.79h6.38v-7.06h-6.38v-9.78Z"/><path class="cls-2" d="M63.3,117.7h35.04v-11.28h-42.45v4.42h35.25v2.85h-35.11v11.41h43.33v-4.48h-36.06v-2.92Z"/><path class="cls-2" d="M85.84,75.66h-12.9v-3.87h-7.54v3.87h-12.7v4.95h33.14v-4.95Z"/><path class="cls-2" d="M81.09,103.13c2.67-.34,4.78-.83,6.32-1.46v-4.96c-2.94,1.31-7.79,1.97-14.53,1.97v-2.58c3.35-.32,5.99-1.06,7.91-2.24,1.92-1.18,2.89-2.72,2.89-4.62,0-2.22-1.3-3.94-3.91-5.16-2.6-1.22-6.1-1.83-10.49-1.83s-7.96.61-10.56,1.83-3.91,2.94-3.91,5.16c0,1.9.95,3.44,2.85,4.62,1.9,1.18,4.53,1.9,7.88,2.17v2.65h-12.9v4.96h19.63c3.21,0,6.16-.17,8.83-.51h-.01ZM63.7,90.94c-1.36-.45-2.04-1.02-2.04-1.7,0-.72.67-1.29,2-1.7,1.33-.41,3.2-.61,5.6-.61s4.27.2,5.6.61c1.33.41,2,.97,2,1.7,0,.68-.68,1.25-2.04,1.7-1.36.45-3.22.68-5.57.68s-4.21-.23-5.57-.68h.02Z"/><path class="cls-2" d="M121.16,107.58h-7.4v17.52h43.33v-6.93h-35.93v-10.59Z"/><path class="cls-2" d="M156.2,112.06v-38.71h-7.26v5.23h-7.68l.48,6.86h7.2v7.2h-7.27l-.48,6.86h7.75v12.56h7.26Z"/><path class="cls-2" d="M124.55,104.38c3.12,0,5.88-.65,8.25-1.94,2.37-1.29,4.2-3.1,5.47-5.43,1.27-2.33,1.9-4.99,1.9-7.98s-.63-5.65-1.9-7.98c-1.27-2.33-3.09-4.14-5.47-5.43-2.38-1.29-5.13-1.94-8.25-1.94s-5.86.65-8.22,1.94c-2.35,1.29-4.17,3.1-5.43,5.43-1.27,2.33-1.9,4.99-1.9,7.98s.63,5.65,1.9,7.98c1.27,2.33,3.08,4.14,5.43,5.43s5.09,1.94,8.22,1.94ZM118.48,82.55c1.52-1.56,3.54-2.34,6.08-2.34s4.49.78,6.01,2.34c1.52,1.56,2.27,3.73,2.27,6.49s-.76,4.94-2.27,6.52c-1.52,1.59-3.52,2.38-6.01,2.38s-4.51-.79-6.04-2.38c-1.54-1.58-2.31-3.76-2.31-6.52s.76-4.92,2.28-6.49h0Z"/><path class="cls-2" d="M207.95,98.48v-24.11h-43.39v7.13h35.79v16.98h7.6Z"/><path class="cls-2" d="M161.43,109.61h20.78v17.12h7.61v-17.12h21.39v-7.26h-49.78v7.26Z"/><path class="cls-2" d="M243.81,116.07v-13.45h-7.4v13.45h-21.19v7.2h49.78v-7.2h-21.19Z"/><path class="cls-2" d="M216.24,105.54c4.53,0,8.84-1.27,12.94-3.8,4.1-2.54,7.57-6,10.42-10.39l20.85,14.33,3.87-6.25-21.33-14.19c1.31-2.99,2.33-6.5,3.06-10.53l-7.54-1.29c-.73,4.66-2.2,8.89-4.42,12.67-2.22,3.78-4.89,6.75-8.01,8.9s-6.41,3.23-9.85,3.23v7.33h.01Z"/></g></g></svg>