<?xml version="1.0" encoding="UTF-8"?><svg id="_레이어_2" xmlns="http://www.w3.org/2000/svg" viewBox="0 0 833.27 835.49"><defs><style>.cls-1{fill:#065aa1;}</style></defs><g id="_레이어_1-2"><path class="cls-1" d="M827.29,349.13c-13.36-77.66-41.86-142.26-93.1-201.91-12.83-14.94-26.77-30-41.36-43.14C605.78,25.7,481.01-10.76,365.69,2.76c-107.83,12.65-202.45,64.79-271.03,147.97C-4.73,271.27-27.65,441.66,34.44,584.98c84.56,195.18,305.89,296.74,509.53,230.06,4.33-1.42,6.78-.85,11.47-3.33,3.46-1.83,2.16-.48,5.52-1.6,9.73-3.23,21.22-8.21,30.6-12.49,170-77.7,267.55-263.59,235.74-448.49ZM685.7,708.77c-88.27,82.66-204.57,115.96-324.9,100.85-63.55-7.98-122.17-32.7-173.94-69.06-4.35-3.05-31.02-22.83-31.52-25.46,2.52-5.46,5.8-11.63,9.03-16.67,22.38-34.88,60.62-61.42,97.15-79.85,11.2-5.66,23.12-9.84,34.16-15.82,2.27,2.25.39,5.23,1.16,8.74,5.57,25.45,34.01,43.92,58.13,48.95,70.56,14.69,149.34-19.04,195.22-72.46l12.65-16.97,69.34,25.74-1.01,1.98c8.63,2.99,17.65,8.15,25.68,12.84,19.37,11.32,37.42,25.04,54.03,39.48l15.28,16.17c-14.03,13.23-26.31,28.31-40.45,41.56ZM272.14,190.21c52.21-9.83,107.69-13.41,160.52-7.45,45.69,5.15,122.18,24.37,158.18,53.32,8.14,6.55,14.7,18.87,15.24,29.33.31,5.94-3.9,31.41-11.41,31.37-1.62,0-22.45-15.84-26.83-18.21-35.29-19.08-85.61-36.43-125.08-39.83-2.96-.26-9.57-3.28-14.26-3.92-63-8.55-130.8-5.11-192.77,10.98-7.48,1.94-15.11,8.84-15.36-4.55-.57-30.82,25.19-46.05,51.76-51.05ZM269.2,167.26c-.14-1.74,11.84-18.78,13.93-21.06,16.68-18.2,43.87-39.99,66.78-49.22,62.47-25.17,142.89-16.2,190.65,33.39,14.34,14.88,27.98,35.47,35.81,54.68,1.09,2.68,6.73,19.65,5.8,20.69-16.58-7.04-32.71-15.71-49.71-21.78-67.06-23.92-158.69-30.8-229.77-21.21-9.11,1.23-22.13,5.49-30.31,5.75-1.61.05-2.05.42-3.17-1.25ZM540.21,287.18c2.33.63,25.27,11.8,23.96,13.56-3.64.61-8.86,4.24-12.44,4-3.03-.21-8.39-5.37-12.43-5.1-.29-2.78-.09-5.62-.1-8.42,0-1.32-2.03-4.74,1.01-4.03ZM520.18,298.74c-2.53,1.04-1.68-1.8-2.64-2.01-1.64-.35-3.79.25-5.73-.1-11.66-2.1-23.35-4.41-35.17-5.34-3.48-1.65-4.5-5.92-7.49-8-14.02-9.79-73.37-8.81-91.45-6.52-12.92,1.64-28.12,2.83-34.22,16.02-10.93-1.47-22.07-1.7-32.86.63-2.79-2.36-2.23-5.86-4.93-8.67-5.21-5.41-17.7-7.57-24.96-8.04-15.17-.98-30.82.63-46,.08-3.66-.06-3.23-7.93-1.57-9.57,1.94-1.91,23.72-7.15,27.99-8.01,51.19-10.24,106.43-9.46,158.53-4.46,33.8,3.25,66.6,11.92,98.24,23.76,2.58,1.06,3.19,8.78,3.29,11.76.12,3.64-1.31,5.4-1.01,8.46ZM227.18,377.75c15.18,3.71,31.86,2.88,46.98-1-2.18,11.66-5.05,20.45,2.18,31.33,10.85,16.36,50.77,19.58,65.19,8.52,4.55-3.49,6.6-10.66.63-13.34-4.72-2.11-28.91,1.25-37.2.2-5.36-.68-15.14-3.86-15.76-10.26-1.27-13.06,21.71-34.48,28.22-45.72,4.85-8.37,5.98-15.25-5.17-17.82l1.07-13.78c7.49-2.92,24.03-7.14,27.2,3.02,2.95,9.46,3.18,18.45,7.78,28.22,16.47,34.98,52.2,41.51,87.11,30.35,28.78-9.2,36.24-36.92,40.87-63.63,3.72-.1,7.56-.36,11.28.02,4.07.41,26.48,4.64,28.94,6.06,4.88,2.83,5.01,16.19,17.28,17.74,13.18,1.66,19.44-15.67,33.38-19.44,35.66-9.64,45.27,19.58,38.17,49.17-5.45,22.7-25.82,46.24-50.31,47.68-7.06.42-14.57-3.73-17.6,6.41-2.53,8.48-5.03,24.65-6.24,33.76-2.76,20.74-7.06,80.15,4.52,96.5,1.49,2.1,6.07,4.09,6.63,7.87l1.83-.87c-.02.48.16,1.04,0,1.48-1.06,2.95-14.06,18.39-17.04,21.72-36.23,40.39-90.91,63.23-145.49,60.81-28.33-1.25-62.06-12.78-67.53-44.37,11.44-6.07,7.96-23.83,7.08-34.64,18.57,4.89,39.25,5.3,58.24,2.74,9.11-1.23,35.11-7.52,41.32-13.68,5.42-5.38,3.55-12.8-4.02-14.11-9.99,2.11-19.95,4.55-29.83,7.1-9.28,2.4-24.91,3.51-36.26,2.99-77.71-3.54-115.78-63.07-123.41-134.59-1.3-12.22-1.13-24.23-.04-36.45ZM758.34,616.41c-3.11,5.28-17.22,31.5-22.66,31.37-.57-2.37-2.55-1.63-3.58-2.69-16.63-16.99-33.78-33.4-55.25-45.52l-36.18-19.82-1.48,1.99c.08-.71-.1-1.57-.7-2-11.08-7.93-38.07-17.04-51.77-22.03-12.2-4.44-29.75-5.39-35.56-18.44-6.75-15.16-2.95-55.47-.85-72.9,1.35-11.17,4.4-22.37,5.97-33.53,28.2-.14,50.52-19.36,61.07-44.43,10.1-24,14.04-56.5-6.22-76.24-.25-2.35,3.94-5.94,5.47-8.51,11.82-19.87,13.28-50.97-.59-70.25-2.5-3.48-9.2-8.84-10.39-12.61-.95-3.02-.07-6.23-.7-9.3-23.1-114.03-125.3-168.86-235.79-142.29-47.41,11.4-101.27,49.45-120.82,95.18-1.22,2.86-3.23,11.98-4.38,13.12-.87.86-8.09,2.84-10.46,4.04-24.46,12.36-42.99,60.09-23.85,82.23,2.88,3.33,6.2,1.89,5.33,8.2-1.43,10.4-6.21,7.17-13.83,9.23-9.56,2.58-15,8.7-14.77,19.05.16,7.06,5.53,9.55,6.59,13.2.87,3.03-.15,7.25.34,10.66,1.15,8.08,4.07,20.19,7.51,27.49,1.69,3.59,8.33,11.63,8.84,14,.53,2.46-1.4,7.54-1.51,10.59-2.49,71.41,14.03,138.97,79.71,176.37,2.52,1.43,14.18,5.71,15.12,7.37l.85,18.33c-20.53,10.45-42.49,18.13-63,28.61-27.09,13.84-57.39,34.65-77.15,57.85-3.87,4.55-21.59,27.68-22.33,31.77-.4,2.23,2.02,4.65-.64,4.23-7.82-7.81-15.82-15.59-23.03-23.98-5.18-6.02-11.64-14.17-16.46-20.54C7.83,532.72-5.59,356.71,72.34,222.41,127.5,127.36,209.61,62.34,316.1,33.17c16.22-4.44,39.4-7.57,56.58-9.41,28.65-3.06,57.69-3.45,86.29-.26,2.42-5.21,1.5.13,1.71.25.58.33,1.57.52,2.29.69,12.35,3.02,26.94,3.88,39.44,6.56,104.18,22.35,199.59,92.26,253.78,183.22,11.58,19.43,22.75,42.22,30.65,63.35,4.67,12.48,7.53,25.79,11.21,38.58l3.11.61-2.05,1.54c2.55,13.73,6.94,27.29,8.98,41.11,12.82,87.07-5.14,181.17-49.77,256.99Z"/><path class="cls-1" d="M285.15,459.27c26,20.56,74.29,15.11,102.38,1.33,4.86-2.38,19.02-12.38,22.89-11.7,3.04.54,6,4.51,10.48,1.56,6.36-4.19-.69-17.17-4.68-21.26-4.06-4.16-14.17-9.57-18.52-3.44-3.77,5.31,1.35,7.26-7.2,12.8-19.66,12.72-58.41,21.17-81.03,13.39-6.73-2.31-19.39-12.62-25.39-10.62-9.68,3.23-4.95,13.17,1.08,17.93Z"/></g></svg>