<svg width="265" height="127" viewBox="0 0 265 127" fill="none" xmlns="http://www.w3.org/2000/svg">
<g clip-path="url(#clip0_343_2)">
<path d="M13.2402 26.86C16.5902 28.01 20.5102 28.59 24.9902 28.59C29.4702 28.59 33.3902 28.01 36.7402 26.86C40.0902 25.71 42.6902 24.07 44.5502 21.94C46.4102 19.81 47.3302 17.3 47.3302 14.4C47.3302 11.5 46.4002 9.04996 44.5502 6.89996C42.6902 4.74996 40.0802 3.09996 36.7102 1.93996C33.3402 0.789961 29.4302 0.209961 24.9902 0.209961C20.5502 0.209961 16.6502 0.789961 13.2802 1.93996C9.91016 3.08996 7.29016 4.74996 5.44016 6.89996C3.58016 9.04996 2.66016 11.55 2.66016 14.4C2.66016 17.25 3.59016 19.81 5.44016 21.94C7.30016 24.07 9.90016 25.71 13.2502 26.86H13.2402ZM14.4002 9.02996C17.1202 7.75996 20.6502 7.12996 24.9902 7.12996C29.3302 7.12996 32.8602 7.75996 35.5502 9.02996C38.2402 10.3 39.5902 12.09 39.5902 14.4C39.5902 16.71 38.2402 18.44 35.5502 19.73C32.8602 21.02 29.3402 21.67 24.9902 21.67C20.6402 21.67 17.1102 21.02 14.4002 19.73C11.6802 18.44 10.3302 16.66 10.3302 14.4C10.3302 12.14 11.6902 10.3 14.4002 9.02996Z" fill="#FF4410"/>
<path d="M0.0703125 39.93H21.1903V53.38H28.7303V39.93H49.8503V32.73H0.0703125V39.93Z" fill="#FF4410"/>
<path d="M73.7492 21.7299H52.7592V49.2999H72.9292C75.4192 49.2999 77.8492 49.0899 80.2292 48.6599C82.6092 48.2299 84.5392 47.6099 86.0392 46.7899V39.8599C84.4492 40.5799 82.4992 41.1799 80.1692 41.6599C77.8392 42.1299 75.5192 42.3699 73.2092 42.3699H60.1692V28.6499H81.0192V1.62988H52.6992V8.62988H73.7492V21.7399V21.7299Z" fill="#FF4410"/>
<path d="M97.1796 0H89.8496V52.16H97.1796V0Z" fill="#FF4410"/>
<path d="M103.57 38.9201V51.7501H147.65V46.6601H110.77V43.2601H146.97V30.5601H103.43V35.5901H139.7V38.9201H103.57Z" fill="#FF4410"/>
<path d="M150.091 21.1899H100.311V26.9599H150.091V21.1899Z" fill="#FF4410"/>
<path d="M147.369 11.8802H110.969V6.11016H146.829V0.410156H103.699V17.5902H147.369V11.8802Z" fill="#FF4410"/>
<path d="M198.779 0H191.449V52.16H198.779V0Z" fill="#FF4410"/>
<path d="M160.721 31.9198C163.101 33.3198 165.781 34.0298 168.771 34.0298C171.761 34.0298 174.431 33.3298 176.781 31.9198C179.131 30.5198 180.971 28.5598 182.281 26.0398C183.591 23.5298 184.251 20.6398 184.251 17.3798C184.251 14.1198 183.591 11.2998 182.281 8.7898C180.971 6.2798 179.131 4.3198 176.781 2.9098C174.431 1.5098 171.751 0.799805 168.771 0.799805C165.791 0.799805 163.101 1.4998 160.721 2.9098C158.341 4.3098 156.501 6.2598 155.181 8.7498C153.871 11.2398 153.211 14.1198 153.211 17.3698C153.211 20.6198 153.871 23.5198 155.181 26.0298C156.491 28.5398 158.341 30.4998 160.721 31.9098V31.9198ZM162.651 10.4898C164.191 8.6598 166.231 7.7398 168.761 7.7398C171.291 7.7398 173.281 8.6598 174.841 10.4898C176.401 12.3198 177.181 14.6198 177.181 17.3798C177.181 20.1398 176.411 22.5098 174.871 24.3398C173.331 26.1698 171.291 27.0898 168.761 27.0898C166.231 27.0898 164.191 26.1798 162.651 24.3698C161.111 22.5598 160.341 20.2298 160.341 17.3698C160.341 14.5098 161.111 12.3098 162.651 10.4798V10.4898Z" fill="#FF4410"/>
<path d="M181.331 48.69C184.051 48.28 186.201 47.69 187.781 46.92V39.79C186.191 40.56 184.091 41.14 181.461 41.52C178.831 41.9 175.981 42.1 172.901 42.1H151.641V49.3H172.491C175.661 49.3 178.601 49.1 181.321 48.69H181.331Z" fill="#FF4410"/>
<path d="M27.7793 73.6201V102.08H34.6993V89.5801H41.4993V103.77H48.4193V73.3501H41.4993V82.5201H34.6993V73.6201H27.7793Z" fill="#FF4410"/>
<path d="M42.8909 107C38.7509 105.3 33.2809 104.45 26.4909 104.45C19.7009 104.45 14.2309 105.3 10.0909 107C5.95086 108.7 3.88086 111.4 3.88086 115.12C3.88086 118.84 5.96086 121.54 10.1309 123.24C14.3009 124.94 19.7509 125.79 26.5009 125.79C33.2509 125.79 38.7009 124.94 42.8709 123.24C47.0409 121.54 49.1209 118.84 49.1209 115.12C49.1209 111.4 47.0509 108.7 42.9109 107H42.8909ZM37.0809 118.51C34.2709 119.24 30.7409 119.6 26.4909 119.6C22.2409 119.6 18.6509 119.24 15.8609 118.51C13.0809 117.79 11.6809 116.65 11.6809 115.11C11.6809 113.57 13.0709 112.44 15.8609 111.71C18.6409 110.99 22.1909 110.62 26.4909 110.62C30.7909 110.62 34.2809 110.98 37.0809 111.71C39.8909 112.43 41.2909 113.57 41.2909 115.11C41.2909 116.65 39.8909 117.78 37.0809 118.51Z" fill="#FF4410"/>
<path d="M13.6502 91.9598L22.6802 101.06L27.4302 96.0998L16.0902 84.9598C16.7702 81.6998 17.1102 78.0798 17.1102 74.0898L10.1102 73.8198C10.1102 79.8398 9.25023 84.7698 7.53023 88.5898C5.81023 92.4198 3.30023 94.7398 -0.00976562 95.5498V102.48C3.02023 102.12 5.69023 101.02 8.00023 99.1898C10.3102 97.3598 12.1902 94.9398 13.6402 91.9598H13.6502Z" fill="#FF4410"/>
<path d="M98.34 73.3501H91V103.98H98.34V90.1901H104.72V83.1301H98.34V73.3501Z" fill="#FF4410"/>
<path d="M63.3006 117.7H98.3406V106.42H55.8906V110.84H91.1406V113.69H56.0306V125.1H99.3606V120.62H63.3006V117.7Z" fill="#FF4410"/>
<path d="M85.8392 75.66H72.9392V71.79H65.3992V75.66H52.6992V80.61H85.8392V75.66Z" fill="#FF4410"/>
<path d="M81.0906 103.13C83.7606 102.79 85.8706 102.3 87.4106 101.67V96.71C84.4706 98.02 79.6206 98.68 72.8806 98.68V96.1C76.2306 95.78 78.8706 95.04 80.7906 93.86C82.7106 92.68 83.6806 91.14 83.6806 89.24C83.6806 87.02 82.3806 85.3 79.7706 84.08C77.1706 82.86 73.6706 82.25 69.2806 82.25C64.8906 82.25 61.3206 82.86 58.7206 84.08C56.1206 85.3 54.8106 87.02 54.8106 89.24C54.8106 91.14 55.7606 92.68 57.6606 93.86C59.5606 95.04 62.1906 95.76 65.5406 96.03V98.68H52.6406V103.64H72.2706C75.4806 103.64 78.4306 103.47 81.1006 103.13H81.0906ZM63.7006 90.94C62.3406 90.49 61.6606 89.92 61.6606 89.24C61.6606 88.52 62.3306 87.95 63.6606 87.54C64.9906 87.13 66.8606 86.93 69.2606 86.93C71.6606 86.93 73.5306 87.13 74.8606 87.54C76.1906 87.95 76.8606 88.51 76.8606 89.24C76.8606 89.92 76.1806 90.49 74.8206 90.94C73.4606 91.39 71.6006 91.62 69.2506 91.62C66.9006 91.62 65.0406 91.39 63.6806 90.94H63.7006Z" fill="#FF4410"/>
<path d="M121.16 107.58H113.76V125.1H157.09V118.17H121.16V107.58Z" fill="#FF4410"/>
<path d="M156.199 112.06V73.3501H148.939V78.5801H141.259L141.739 85.4401H148.939V92.6401H141.669L141.189 99.5001H148.939V112.06H156.199Z" fill="#FF4410"/>
<path d="M124.55 104.38C127.67 104.38 130.43 103.73 132.8 102.44C135.17 101.15 137 99.3402 138.27 97.0102C139.54 94.6802 140.17 92.0202 140.17 89.0302C140.17 86.0402 139.54 83.3802 138.27 81.0502C137 78.7202 135.18 76.9102 132.8 75.6202C130.42 74.3302 127.67 73.6802 124.55 73.6802C121.43 73.6802 118.69 74.3302 116.33 75.6202C113.98 76.9102 112.16 78.7202 110.9 81.0502C109.63 83.3802 109 86.0402 109 89.0302C109 92.0202 109.63 94.6802 110.9 97.0102C112.17 99.3402 113.98 101.15 116.33 102.44C118.68 103.73 121.42 104.38 124.55 104.38ZM118.48 82.5502C120 80.9902 122.02 80.2102 124.56 80.2102C127.1 80.2102 129.05 80.9902 130.57 82.5502C132.09 84.1102 132.84 86.2802 132.84 89.0402C132.84 91.8002 132.08 93.9802 130.57 95.5602C129.05 97.1502 127.05 97.9402 124.56 97.9402C122.07 97.9402 120.05 97.1502 118.52 95.5602C116.98 93.9802 116.21 91.8002 116.21 89.0402C116.21 86.2802 116.97 84.1202 118.49 82.5502H118.48Z" fill="#FF4410"/>
<path d="M207.951 98.4801V74.3701H164.561V81.5001H200.351V98.4801H207.951Z" fill="#FF4410"/>
<path d="M161.43 109.61H182.21V126.73H189.82V109.61H211.21V102.35H161.43V109.61Z" fill="#FF4410"/>
<path d="M243.811 116.07V102.62H236.411V116.07H215.221V123.27H265.001V116.07H243.811Z" fill="#FF4410"/>
<path d="M216.24 105.54C220.77 105.54 225.08 104.27 229.18 101.74C233.28 99.1999 236.75 95.7399 239.6 91.3499L260.45 105.68L264.32 99.4299L242.99 85.2399C244.3 82.2499 245.32 78.7399 246.05 74.7099L238.51 73.4199C237.78 78.0799 236.31 82.3099 234.09 86.0899C231.87 89.8699 229.2 92.8399 226.08 94.9899C222.96 97.1399 219.67 98.2199 216.23 98.2199V105.55L216.24 105.54Z" fill="#FF4410"/>
<path d="M216.519 45.84L219.259 52.16H220.729L223.469 45.74V52.16H225.119V42.23H223.469L219.989 50.4L216.519 42.23H214.869V52.16H216.519V45.84Z" fill="#FF4410"/>
<path d="M205.32 43.88H208.62V52.16H210.38V43.88H213.68V42.23H205.32V43.88Z" fill="#FF4410"/>
</g>
<defs>
<clipPath id="clip0_343_2">
<rect width="265" height="126.73" fill="white"/>
</clipPath>
</defs>
</svg>
