<?xml version="1.0" encoding="UTF-8"?><svg id="_레이어_2" xmlns="http://www.w3.org/2000/svg" viewBox="0 0 1785.58 1326.28"><defs><style>.cls-1{fill:#fff;}</style></defs><g id="Layer_1"><path class="cls-1" d="M1534.82,1046.41c2.06-1.77,3.74-3.78,5.02-6.06,1.29-2.28,2.26-4.77,2.94-7.49.68-2.71,1.13-5.62,1.36-8.71.23-3.1.34-6.37.34-9.83v-10.49c0-1-.17-1.69-.5-2.05-.35-.35-.91-.53-1.71-.53h-1.13v-2.21h12.95v12.63c0,4.47.11,8.39.31,11.76.21,3.37.64,6.37,1.3,9,.65,2.63,1.58,4.98,2.77,7.05,1.2,2.06,2.82,4,4.84,5.81l-2.33,2.34c-1.14-.59-2.32-1.51-3.54-2.75-1.22-1.24-2.38-2.6-3.47-4.07-1.1-1.47-2.07-2.97-2.9-4.45-.85-1.5-1.46-2.79-1.84-3.89-.55,1.77-1.28,3.49-2.21,5.18-.92,1.69-1.94,3.23-3.06,4.64-1.12,1.41-2.29,2.69-3.54,3.83-1.24,1.14-2.43,2.04-3.57,2.71l-2.02-2.4ZM1557.06,1019.06h6.51v-16.18c0-.96-.09-1.68-.26-2.15-.17-.46-.73-.7-1.71-.7h-.76v-2.33h11.12v55.73h-6.71c-.62,0-1.07-.19-1.32-.57-.25-.38-.37-.76-.37-1.14v-29h-6.51v-3.66ZM1576.33,1002.88c0-1-.1-1.73-.29-2.18-.18-.44-.79-.67-1.79-.67h-.57v-2.33h11.05v55.73h-6.7c-.58,0-1.02-.16-1.29-.48-.28-.31-.41-.73-.41-1.24v-48.84Z"/><path class="cls-1" d="M1635.15,1030.05v13.07h-28.38v6.44h29.07v3.86h-37.15c-1.02,0-1.69-.26-2.03-.79s-.5-1.19-.5-1.99v-6.31c0-1.02-.19-1.71-.57-2.09-.38-.38-.99-.56-1.83-.56h-1.14v-2.34h31.84v-5.75h-29.32v-3.54h14.4v-4.74h-18.45v-3.54h48.08v3.54h-18.58v4.74h14.54ZM1615,1018.74c-2.9,0-5.61-.19-8.12-.56-2.5-.39-4.67-1.01-6.51-1.87-1.83-.87-3.27-1.98-4.3-3.34-1.03-1.37-1.55-3.07-1.55-5.09s.51-3.59,1.55-4.96c1.03-1.37,2.47-2.48,4.3-3.35,1.83-.86,4-1.49,6.51-1.86,2.5-.38,5.21-.56,8.12-.56s5.68.19,8.22.56c2.53.38,4.72,1,6.56,1.86,1.86.87,3.3,1.98,4.34,3.35,1.03,1.37,1.54,3.02,1.54,4.96s-.51,3.71-1.54,5.09c-1.04,1.36-2.48,2.48-4.34,3.34-1.84.86-4.03,1.48-6.56,1.87-2.53.37-5.27.56-8.22.56M1615,1015.2c3.75,0,6.47-.66,8.15-2.01,1.68-1.34,2.53-3.12,2.53-5.35s-.83-3.91-2.49-5.22c-1.67-1.3-4.4-1.95-8.19-1.95s-6.39.65-8.06,1.95c-1.67,1.3-2.5,3.04-2.5,5.22s.84,4.02,2.53,5.35c1.69,1.35,4.36,2.01,8.02,2.01"/><path class="cls-1" d="M1645.83,1026.44c0-.71-.19-1.24-.57-1.57-.38-.33-.88-.5-1.51-.5h-1.4v-2.4h18.21v-18.95h-16.12v-3.67h24.2c.67,0,1.14.17,1.42.51.27.33.41.92.41,1.76v23.88h-14.6v18.89h16.87v3.73h-23.88c-1.01,0-1.77-.29-2.27-.88-.51-.58-.76-1.34-.76-2.27v-18.53ZM1688.17,1053.62h-7.53c-1.38,0-2.07-.72-2.07-2.15v-48.96c-.09-.85-.34-1.41-.76-1.71-.43-.3-.97-.45-1.64-.45h-1.26v-2.34h13.27v55.6Z"/><path class="cls-1" d="M1744.77,1049.06h-48.08v-3.66h48.08v3.66ZM1740.85,1029.23h-36.89c-1.14,0-1.93-.29-2.37-.88-.44-.58-.67-1.37-.67-2.34v-21.54c0-.96-.21-1.63-.63-1.99-.41-.36-1.01-.53-1.76-.53h-1.2v-2.21h43.28v3.73h-12.25v22.04h12.5v3.73ZM1710.85,1025.5h7.52v-22.05h-7.52v22.05Z"/><path class="cls-1" d="M1318.39,1017.39c21.5,0,38.93-17.43,38.93-38.93s-17.43-38.93-38.93-38.93-38.93,17.43-38.93,38.93,17.43,38.93,38.93,38.93"/><path class="cls-1" d="M653.74,1081.29c-36.78,0-68.15,12.02-94.12,36.06-25.98,24.03-38.96,53.15-38.96,87.34s12.98,61.17,38.96,85.2c25.97,24.04,56.77,36.06,92.4,36.06,29.95,0,57.44-9.27,82.47-27.79,31.84-23.5,47.77-54.3,47.77-92.41,0-34.18-12.61-63.48-37.82-87.87-25.22-24.39-55.45-36.59-90.7-36.59M688.48,1288.55c-5.65,19.95-17.34,29.92-35.04,29.92-14.32,0-25.43-7.83-33.34-23.51-9.81-19.58-14.7-52.7-14.7-99.35,0-33.47,4.14-59.74,12.43-78.8,8.29-19.05,19.78-28.58,34.47-28.58,15.82,0,27.32,9.08,34.48,27.25,6.4,16.38,9.61,46.66,9.61,90.81,0,35.97-2.64,63.39-7.91,82.27"/><path class="cls-1" d="M1783.31,1250.62c-1.89,0-4.36,3.39-7.39,10.15-6.46,13.54-15.83,24.57-28.15,33.12-12.33,8.54-25.13,12.82-38.39,12.82-15.92,0-29.38-5.14-40.38-15.43-18.58-17.38-27.87-46.83-27.87-88.34,0-8.86.57-19.68,1.71-32.45,14.4-.7,26.34-1.07,35.83-1.07,61.41-.46,96.47-1.18,105.2-2.13-.77-8.9-1.91-16.56-3.41-22.97-5.68-20.65-18.01-36.49-36.96-47.54-17.06-9.97-37.73-14.96-61.98-14.96-35.65,0-65.4,11.67-89.29,34.99-23.88,23.33-35.83,52.44-35.83,87.33s12.32,64.82,36.96,87.6c24.64,22.8,56.1,34.2,94.4,34.2,34.12,0,61.79-13.71,83.02-41.14,9.85-12.82,14.79-23.15,14.79-30.99,0-2.13-.77-3.21-2.28-3.21M1683.79,1087.7c11.37,0,19.33,5.31,23.89,15.91,4.54,10.61,6.62,29.52,6.25,56.74h-69.96c3.41-48.43,16.68-72.65,39.81-72.65"/><path class="cls-1" d="M1066.72,1308.83h-4.04c-.06,0-.07-.03-.13-.03h-15.69c-8.54,0-13.8-5.77-14.59-12.49-.32-7.63-.5-19.3-.53-35.12h-.01v-174.03h-111.2c-2.2,0-3.99,1.79-3.99,3.99s1.79,4,3.99,4h4.04c.06,0,.08.02.13.02h15.69c8.55,0,13.8,5.77,14.59,12.5.36,8.41.54,21.48.54,39.97v128.36c-.76,2.56-3.11,9.23-8.55,15.28-4.45,4.92-18.7,15.53-30.6,15.53-6.93,0-13.32-2.24-18.58-5.96-4.64-3.29-8.34-7.75-10.72-12.97-1.2-3.58-2.03-7.53-2.67-11.44-.74-5.5-1.2-11.89-1.47-18.17-.23-5.24-.33-10.11-.36-14.3v-156.26h-74.91l-25.09-.44h-11.59c-.09,0-.15-.1-.25-.1-2.2,0-3.99,1.79-3.99,3.99,0,.03.03.04.03.06,0,.01-.03.03-.03.04,0,2.21,1.79,4,3.99,4h4.05c.06,0,.07.03.12.03h16.88c1,0,1.79.33,2.71.47h-17.84c.06,0,.07.03.13.03h15.69c1.24,0,2.27.33,3.35.57,2.41.53,4.58,1.4,6.25,2.79,1.87,1.76,3.01,4.07,3.68,6.53.42,8.19.63,22.35.63,42.53v95.31l-.11,16.91h-.03s-.02.88.01,2.4v3.32s.19-.03.19-.03c1.04,14.08,7.32,50.09,44.45,57.53,18.56,3.71,34.35,3.27,48.23.19.51-.05.9-.04,1.52-.15,9.65-1.72,16.96-4.88,18.59-5.61.06-.03.13-.06.19-.09.11-.05.48-.21.48-.21h-.02c4.39-1.98,10.36-5.26,19.18-11.19,7.99-5.38,15.53-14.73,16.46-15.9v26.14h111.2c2.21,0,4-1.79,4-3.99s-1.79-4-4-4"/><path class="cls-1" d="M1230.72,1308.83h-4.05c-.05,0-.06-.03-.13-.03h-15.69c-8.54,0-13.8-5.77-14.59-12.49-.32-7.63-.49-19.3-.53-35.12h-.04v-318.8c-37.13,12.51-63.76,16.08-79.55,16.98h-33.44c-2.2,0-3.99,1.79-3.99,4s1.79,3.99,3.99,3.99h4.04c.06,0,.08.03.13.03h15.69c8.55,0,13.8,5.77,14.59,12.49.28,6.77.45,16.91.51,30.1v256.24c-.06,13.2-.23,23.34-.51,30.1-.79,6.72-6.04,12.49-14.59,12.49h-15.69c-.05,0-.07.03-.13.03h-4.04c-2.2,0-3.99,1.78-3.99,4s1.79,3.99,3.99,3.99h148.01c2.21,0,3.99-1.79,3.99-3.99s-1.78-4-3.99-4"/><path class="cls-1" d="M1392.31,1308.83h-4.05c-.05,0-.06-.03-.12-.03h-15.7c-8.54,0-13.8-5.77-14.59-12.49-.32-7.63-.49-19.3-.52-35.12h-.01v-191c-37.13,12.52-63.69,16.09-79.43,16.98h-33.38c-2.2,0-3.99,1.79-3.99,4s1.79,3.99,3.99,3.99h4.05c.06,0,.07.03.12.03h15.7c8.54,0,13.8,5.77,14.6,12.5.13,3.15.23,7.18.31,11.73v141.78h0c-.03,15.82-.21,27.49-.53,35.12-.79,6.72-6.04,12.49-14.59,12.49h-15.69c-.05,0-.07.03-.13.03h-4.04c-2.2,0-3.99,1.78-3.99,4s1.79,3.99,3.99,3.99h148.01c2.21,0,4-1.79,4-3.99s-1.79-4-4-4"/><path class="cls-1" d="M501.96,1250.62c-1.89,0-4.36,3.39-7.39,10.15-6.45,13.54-15.83,24.57-28.15,33.12-12.33,8.54-25.13,12.82-38.39,12.82-15.92,0-29.38-5.16-40.37-15.5-18.58-17.44-27.87-47.01-27.87-88.67,0-8.9.57-19.77,1.71-32.59,14.4-.7,26.34-1.07,35.83-1.07,61.41-.46,96.47-1.18,105.2-2.13-.77-8.85-1.9-16.46-3.41-22.83-5.68-20.53-18.01-36.27-36.96-47.24-17.06-9.91-37.73-14.87-61.98-14.87-35.65,0-65.4,11.67-89.29,34.99-23.88,23.33-35.83,52.44-35.83,87.33s12.32,64.82,36.96,87.6c24.64,22.8,56.1,34.2,94.4,34.2,34.12,0,61.79-13.71,83.02-41.14,9.85-12.82,14.79-23.15,14.79-30.99,0-2.13-.77-3.21-2.28-3.21M402.44,1087.7c11.37,0,19.33,5.27,23.89,15.79,4.54,10.53,6.62,29.3,6.25,56.32h-69.95c3.41-48.07,16.68-72.11,39.81-72.11"/><path class="cls-1" d="M387.98,1051.91c.71,0,1.33-.31,1.81-.75l.03.03.08-.07s0,0,0,0l101.24-84.13h-72.21l-33.36,80.92.16.13c-.21.37-.49.71-.49,1.17,0,1.51,1.22,2.73,2.73,2.73"/><path class="cls-1" d="M1571.38,1281.72c-1.44,0-2.52.82-3.29,1.89l-.11-.08c-67.43,50.18-70.8-5.6-70.89-15.42v-160.58c.02-.43.03-.98.05-1.39.8-6.73,6.05-12.5,14.59-12.5h40.5c.06,0,.08-.02.13-.02h4.03c2.21,0,4-1.79,4-4s-1.79-4-4-4h-35.46l-10,.18h0c-11.59.18-13.75-1.14-16.96-9.14-3.21-8-1.15-46.12-1.15-46.12,0-2.3-1.87-4.17-4.17-4.17-1.03,0-1.91.48-2.63,1.09l-.09-.07s-.13.14-.15.17c-.04.04-.07.08-.11.13-2.75,3.05-50.68,55.68-75.48,57.94h-25.89c-2.21,0-4,1.79-4,4s1.79,4,4,4h4.03c.06,0,.08.02.13.02h15.69c8.54,0,13.8,5.77,14.59,12.5.32,7.62.5,19.29.53,35.11v132.99c0,50.68,63.01,51.81,63.01,51.81,24.09.9,45.38-5.35,45.38-5.35,32.21-11.76,47.25-32.27,47.25-32.27l-.19-.13c.47-.7.96-1.41.96-2.3,0-2.37-1.93-4.28-4.29-4.28"/><path class="cls-1" d="M147.27,1090.9c-33.36-17.44-55.93-31.78-67.67-43-11.76-11.22-17.63-24.12-17.63-38.73,0-16.74,6.25-29.92,18.77-39.54,12.52-9.61,29.37-14.42,50.61-14.42,15.16,0,28.43,3.21,39.81,9.62,8.71,4.99,17.34,13.09,25.88,24.3,8.53,11.22,14.5,22.53,17.91,33.93,2.36,7.9,4.73,12.87,7.1,15.3.13.15.19.3.35.43.92.85,1.86,1.36,2.78,1.36.12,0,.14-.09.26-.09.11,0,.17.12.28.12,2.75,0,4.99-2.23,4.99-4.99,0,0-.8-2.67-2.01-10.15-.13-.73-.23-1.25-.35-2.08-1.43-9.33-2.82-37.15-.5-57.04.04-.38.06-.64.1-1.01.81-7.13,1.12-11.73,1.17-14.63.01-.65.01-1.19,0-1.68-.01-.49-.21-.74-.31-1.12.07-.32.36-.53.36-.87,0-2.75-2.23-4.98-4.98-4.98-.24,0-.4.23-.63.26-.02-.01-.04-.03-.08-.03-2.65,0-4.36,1.6-5.12,4.81-1.9,9.26-5.68,13.89-11.37,13.89-3.04,0-8.16-1.42-15.36-4.27-21.61-8.54-41.89-12.82-60.85-12.82-35.26,0-64.45,10.07-87.58,30.19-23.12,20.12-34.69,45.49-34.69,76.11,0,26,6.83,48.44,20.48,67.31,14.78,20.66,42.84,41.32,84.16,61.97,37.15,18.88,59.14,31.51,65.97,37.92,9.1,8.91,13.64,20.83,13.64,35.79,0,17.45-7.01,32.23-21.04,44.34-14.03,12.11-31.27,18.17-51.75,18.17-23.12,0-44.73-7.83-64.83-23.51l-1.79-1.24-.02-.07c-5.78-4.84-11.68-10.59-17.36-18.06-9.05-11.89-15.37-23.88-18.99-35.96-.78-2.62-1.57-4.83-2.36-6.86l.06.05s-.53-1.34-1.24-2.94c-.11-.24-.22-.51-.33-.74-1.03-2.21-2.42-4.74-3.85-5.99-.97-1.11-2.36-1.86-3.96-1.86-1.86,0-3.41,1.02-4.35,2.47l-.07-.08-.05.24c-.48.8-.82,1.68-.82,2.67,0,.31.03.61.08.9,0,0,1.49,5.24,2.08,8.58.09.52.16.89.26,1.46.13.77.23,1.32.37,2.2,1.51,9.9,2.99,39.39.53,60.46-.05.4-.07.68-.12,1.07-.85,7.56-1.18,12.43-1.24,15.51-.03.6-.06,1.2-.06,1.56,0,.04.01.07.02.1-.01.82-.02,1.57-.02,1.98h0v.03c0,.06,0,.18,0,.22,0,.03.02.04.02.06.01.22.02.45.06.66.06.31.34.5.45.79,0,.01.01.06.01.06,0,0,0-.01.01-.02.45,1.25,1.24,2.18,2.37,2.84.66.51,1.41.89,2.35.89.01,0,.02-.01.04-.01.11,0,.18.11.29.11,2.73,0,4.9-1.99,5.4-4.57.12-.34.35-.48.44-.87,2.02-9.81,6.03-14.71,12.06-14.71,3.22,0,8.65,1.5,16.28,4.52,3.01,1.19,8.61,3.01,12.8,4.35v.03c.3.09.56.15.87.25.9.29,1.84.59,2.51.8v-.08c28.22,8.71,51.64,13.38,69.49,13.38,37.9,0,69.1-10.6,93.55-31.79,24.46-21.19,36.68-47.99,36.68-80.4,0-28.85-9.67-52.7-29-71.58-13.28-12.82-40.38-29.91-81.32-51.28"/><path class="cls-1" d="M1747.53,847.17h-4.59C1742.94,382.57,1364.96,4.59,900.37,4.59S57.79,382.57,57.79,847.17h-4.6C53.19,380.03,433.24,0,900.37,0s847.16,380.03,847.16,847.17"/></g></svg>