<?xml version="1.0" encoding="UTF-8"?><svg id="_레이어_2" xmlns="http://www.w3.org/2000/svg" viewBox="0 0 38.74 37.25"><defs><style>.cls-1{fill:#fff;}</style></defs><g id="_레이어_1-2"><path class="cls-1" d="M38.53,13.92c-.46-1.41-1.59-2.41-2.92-2.75-1.04-.26-2.15-.03-3.08.52l-12.21,7.16,3.03-13.83c.23-1.05.11-2.18-.46-3.09-.74-1.16-2.04-1.93-3.52-1.93s-2.78.77-3.52,1.93c-.57.91-.69,2.04-.46,3.09l3.03,13.83-12.21-7.16c-.93-.54-2.04-.78-3.08-.52-1.33.35-2.47,1.34-2.92,2.75-.46,1.41-.13,2.88.75,3.94.69.82,1.73,1.29,2.8,1.39l14.09,1.39-10.58,9.4c-.8.71-1.37,1.7-1.44,2.77-.08,1.37.52,2.76,1.71,3.63,1.2.87,2.7,1.01,3.98.51,1-.4,1.76-1.24,2.19-2.23l5.67-12.97,5.67,12.97c.43.98,1.19,1.83,2.19,2.23,1.28.5,2.78.36,3.98-.51s1.8-2.26,1.71-3.63c-.07-1.07-.64-2.06-1.44-2.77l-10.58-9.4,14.09-1.39c1.07-.11,2.11-.57,2.8-1.39.87-1.06,1.21-2.54.75-3.94Z"/></g></svg>