<svg width="169" height="33" viewBox="0 0 169 33" fill="none" xmlns="http://www.w3.org/2000/svg">
<g clip-path="url(#clip0_114_278)">
<path d="M165.95 32.3499H1C0.45 32.3499 0 31.8999 0 31.3499C0 30.7999 0.45 30.3499 1 30.3499H165.95C166.57 30.3499 166.82 29.8699 166.88 29.7299C166.94 29.5799 167.1 29.0699 166.66 28.6299L150.07 12.0399C149.68 11.6499 149.68 11.0199 150.07 10.6299C150.46 10.2399 151.09 10.2399 151.48 10.6299L168.07 27.2199C168.95 28.0999 169.2 29.3499 168.72 30.4999C168.25 31.6399 167.18 32.3599 165.94 32.3599L165.95 32.3499Z" fill="#727A7A"/>
<path d="M13.6517 9.22L12.1017 11.48C9.90172 10.75 8.36172 9.33 7.47172 7.52C6.57172 9.61 4.96172 11.25 2.59172 12.05L1.01172 9.77C4.48172 8.62 5.96172 5.86 5.99172 2.99V1.1H8.91172V3.27C8.90172 5.79 10.3717 8.21 13.6617 9.23L13.6517 9.22ZM11.0017 12.74C15.3017 12.74 18.0017 14.24 18.0117 16.76C18.0017 19.31 15.3117 20.79 11.0017 20.78C6.62172 20.79 3.87172 19.31 3.88172 16.76C3.87172 14.24 6.62172 12.74 11.0017 12.74ZM11.0017 18.49C13.6917 18.49 15.1317 17.93 15.1317 16.76C15.1317 15.59 13.6917 15.03 11.0017 15.03C8.31172 15.03 6.78172 15.63 6.80172 16.76C6.78172 17.94 8.27172 18.49 11.0017 18.49ZM14.8817 0H17.8017V4.86H20.6117V7.28H17.8017V12.32H14.8817V0Z" fill="#727A7A"/>
<path d="M22.3086 1.3H31.5786V3.61H25.2286V8.56C28.9986 8.54 31.0586 8.39 33.3786 7.92L33.6786 10.2C31.0686 10.8 28.6686 10.88 24.0686 10.88H22.3086V1.3ZM24.4086 12.53H37.9886V20.52H24.4086V12.53ZM35.1186 18.24V14.84H27.2886V18.24H35.1186ZM37.9886 4.68H40.7986V7.08H37.9886V11.67H35.0686V0H37.9886V4.68Z" fill="#727A7A"/>
<path d="M51.9705 4.06002V3.74002H47.7905V1.42002H59.0705V3.75002H54.9405V4.09002C54.9305 6.50002 56.4105 9.07002 59.7105 10.14L58.2705 12.45C55.9805 11.7 54.3905 10.19 53.4905 8.33002C52.5705 10.4 50.9105 12.07 48.4605 12.88L46.9805 10.51C50.4205 9.44002 51.9705 6.73002 51.9805 4.07002L51.9705 4.06002ZM50.8005 13.86H53.7205V18.08H65.0905V20.41H50.8005V13.86ZM64.5905 15.18H61.6905V7.74002H58.2905V5.39002H61.6905V0.0200195H64.5905V15.18Z" fill="#727A7A"/>
<path d="M72.1595 14.86V13.08C69.9595 12.65 68.5195 11.24 68.5295 9.31C68.5195 6.99 70.6195 5.41 73.6395 5.41C76.6595 5.41 78.7295 7 78.7495 9.31C78.7295 11.24 77.2695 12.65 75.0795 13.08V14.76C76.7195 14.67 78.3795 14.53 79.9195 14.32L80.0995 16.44C75.6795 17.26 70.9095 17.3 67.4095 17.28L67.0195 14.91C68.5395 14.91 70.3095 14.91 72.1595 14.86ZM67.4295 2.31H72.1595V0.11H75.0795V2.3H79.7595V4.58H67.4295V2.3V2.31ZM73.6395 11C75.0195 11 75.9495 10.41 75.9495 9.31C75.9495 8.21 75.0295 7.63 73.6395 7.62C72.2095 7.63 71.2795 8.24 71.2895 9.31C71.2795 10.41 72.2095 11 73.6395 11ZM83.8895 8.45H86.6095V10.87H83.8895V20.78H80.9495V0H83.8895V8.45Z" fill="#727A7A"/>
<path d="M87.3516 3.1H92.0516V0.32H94.9716V3.11H99.5616V5.44H87.3516V3.11V3.1ZM93.5116 6.6C96.5316 6.59 98.8116 8.65 98.8116 11.55C98.8116 14.45 96.5416 16.49 93.5116 16.5C90.4416 16.49 88.1816 14.45 88.1916 11.55C88.1816 8.65 90.4416 6.59 93.5116 6.6ZM93.5116 14.11C94.9616 14.12 96.0216 13.16 96.0216 11.55C96.0216 9.94 94.9616 8.97 93.5116 8.95C92.0416 8.97 90.9816 9.95 90.9816 11.55C90.9816 13.15 92.0416 14.12 93.5116 14.11ZM103.852 8.13H106.912V10.53H103.852V20.78H100.972V0H103.852V8.13Z" fill="#727A7A"/>
<path d="M115.919 4.45H108.839V2.17H118.879C118.869 8.47 116.669 13.71 109.249 17.21L107.719 14.88C113.079 12.35 115.449 9.06 115.919 4.45ZM125.119 20.77H122.169V0H125.119V20.77Z" fill="#727A7A"/>
</g>
<defs>
<clipPath id="clip0_114_278">
<rect width="168.96" height="32.35" fill="white"/>
</clipPath>
</defs>
</svg>
