<?xml version="1.0" encoding="UTF-8"?><svg id="_레이어_2" xmlns="http://www.w3.org/2000/svg" viewBox="0 0 265 126.73"><defs><style>.cls-1{fill:#f44615;}</style></defs><g id="_레이어_1-2"><path class="cls-1" d="M13.24,26.86c3.35,1.15,7.27,1.73,11.75,1.73s8.4-.58,11.75-1.73c3.35-1.15,5.95-2.79,7.81-4.92,1.86-2.13,2.78-4.64,2.78-7.54s-.93-5.35-2.78-7.5c-1.86-2.15-4.47-3.8-7.84-4.96-3.37-1.15-7.28-1.73-11.72-1.73s-8.34.58-11.71,1.73c-3.37,1.15-5.99,2.81-7.84,4.96-1.86,2.15-2.78,4.65-2.78,7.5s.93,5.41,2.78,7.54c1.86,2.13,4.46,3.77,7.81,4.92ZM14.4,9.03c2.72-1.27,6.25-1.9,10.59-1.9s7.87.63,10.56,1.9c2.69,1.27,4.04,3.06,4.04,5.37s-1.35,4.04-4.04,5.33c-2.69,1.29-6.21,1.94-10.56,1.94s-7.88-.65-10.59-1.94c-2.72-1.29-4.07-3.07-4.07-5.33s1.36-4.1,4.07-5.37Z"/><polygon class="cls-1" points=".07 39.93 21.19 39.93 21.19 53.38 28.73 53.38 28.73 39.93 49.85 39.93 49.85 32.73 .07 32.73 .07 39.93"/><path class="cls-1" d="M73.75,21.73h-20.99v27.57h20.17c2.49,0,4.92-.21,7.3-.64,2.38-.43,4.31-1.05,5.81-1.87v-6.93c-1.59.72-3.54,1.32-5.87,1.8-2.33.47-4.65.71-6.96.71h-13.04v-13.72h20.85V1.63h-28.32v7h21.05v13.11Z"/><rect class="cls-1" x="89.85" width="7.33" height="52.16"/><polygon class="cls-1" points="103.57 38.92 103.57 51.75 147.65 51.75 147.65 46.66 110.77 46.66 110.77 43.26 146.97 43.26 146.97 30.56 103.43 30.56 103.43 35.59 139.7 35.59 139.7 38.92 103.57 38.92"/><rect class="cls-1" x="100.31" y="21.19" width="49.78" height="5.77"/><polygon class="cls-1" points="147.37 11.88 110.97 11.88 110.97 6.11 146.83 6.11 146.83 .41 103.7 .41 103.7 17.59 147.37 17.59 147.37 11.88"/><rect class="cls-1" x="191.45" width="7.33" height="52.16"/><path class="cls-1" d="M160.72,31.92c2.38,1.4,5.06,2.11,8.05,2.11s5.66-.7,8.01-2.11c2.35-1.4,4.19-3.36,5.5-5.88,1.31-2.51,1.97-5.4,1.97-8.66s-.66-6.08-1.97-8.59c-1.31-2.51-3.15-4.47-5.5-5.88-2.35-1.4-5.03-2.11-8.01-2.11s-5.67.7-8.05,2.11c-2.38,1.4-4.22,3.35-5.54,5.84-1.31,2.49-1.97,5.37-1.97,8.62s.66,6.15,1.97,8.66c1.31,2.51,3.16,4.47,5.54,5.88ZM162.65,10.49c1.54-1.83,3.58-2.75,6.11-2.75s4.52.92,6.08,2.75c1.56,1.83,2.34,4.13,2.34,6.89s-.77,5.13-2.31,6.96c-1.54,1.83-3.58,2.75-6.11,2.75s-4.57-.91-6.11-2.72c-1.54-1.81-2.31-4.14-2.31-7s.77-5.06,2.31-6.89Z"/><path class="cls-1" d="M181.33,48.69c2.72-.41,4.87-1,6.45-1.77v-7.13c-1.59.77-3.69,1.35-6.32,1.73-2.63.38-5.48.58-8.56.58h-21.26v7.2h20.85c3.17,0,6.11-.2,8.83-.61Z"/><polygon class="cls-1" points="27.78 73.62 27.78 102.08 34.7 102.08 34.7 89.58 41.5 89.58 41.5 103.77 48.42 103.77 48.42 73.35 41.5 73.35 41.5 82.52 34.7 82.52 34.7 73.62 27.78 73.62"/><path class="cls-1" d="M42.89,107c-4.14-1.7-9.61-2.55-16.4-2.55s-12.26.85-16.4,2.55c-4.14,1.7-6.21,4.4-6.21,8.12s2.08,6.42,6.25,8.12c4.17,1.7,9.62,2.55,16.37,2.55s12.2-.85,16.37-2.55c4.17-1.7,6.25-4.4,6.25-8.12s-2.07-6.42-6.21-8.12ZM37.08,118.51c-2.81.73-6.34,1.09-10.59,1.09s-7.84-.36-10.63-1.09c-2.78-.72-4.18-1.86-4.18-3.4s1.39-2.67,4.18-3.4c2.78-.72,6.33-1.09,10.63-1.09s7.79.36,10.59,1.09c2.81.72,4.21,1.86,4.21,3.4s-1.4,2.67-4.21,3.4Z"/><path class="cls-1" d="M13.65,91.96l9.03,9.1,4.75-4.96-11.34-11.14c.68-3.26,1.02-6.88,1.02-10.87l-7-.27c0,6.02-.86,10.95-2.58,14.77-1.72,3.83-4.23,6.15-7.54,6.96v6.93c3.03-.36,5.7-1.46,8.01-3.29s4.19-4.25,5.64-7.23Z"/><polygon class="cls-1" points="98.34 73.35 91 73.35 91 103.98 98.34 103.98 98.34 90.19 104.72 90.19 104.72 83.13 98.34 83.13 98.34 73.35"/><polygon class="cls-1" points="63.3 117.7 98.34 117.7 98.34 106.42 55.89 106.42 55.89 110.84 91.14 110.84 91.14 113.69 56.03 113.69 56.03 125.1 99.36 125.1 99.36 120.62 63.3 120.62 63.3 117.7"/><polygon class="cls-1" points="85.84 75.66 72.94 75.66 72.94 71.79 65.4 71.79 65.4 75.66 52.7 75.66 52.7 80.61 85.84 80.61 85.84 75.66"/><path class="cls-1" d="M81.09,103.13c2.67-.34,4.78-.83,6.32-1.46v-4.96c-2.94,1.31-7.79,1.97-14.53,1.97v-2.58c3.35-.32,5.99-1.06,7.91-2.24,1.92-1.18,2.89-2.72,2.89-4.62,0-2.22-1.3-3.94-3.91-5.16-2.6-1.22-6.1-1.83-10.49-1.83s-7.96.61-10.56,1.83c-2.6,1.22-3.91,2.94-3.91,5.16,0,1.9.95,3.44,2.85,4.62,1.9,1.18,4.53,1.9,7.88,2.17v2.65h-12.9v4.96h19.63c3.21,0,6.16-.17,8.83-.51ZM63.7,90.94c-1.36-.45-2.04-1.02-2.04-1.7,0-.72.67-1.29,2-1.7,1.33-.41,3.2-.61,5.6-.61s4.27.2,5.6.61c1.33.41,2,.97,2,1.7,0,.68-.68,1.25-2.04,1.7-1.36.45-3.22.68-5.57.68s-4.21-.23-5.57-.68Z"/><polygon class="cls-1" points="121.16 107.58 113.76 107.58 113.76 125.1 157.09 125.1 157.09 118.17 121.16 118.17 121.16 107.58"/><polygon class="cls-1" points="156.2 112.06 156.2 73.35 148.94 73.35 148.94 78.58 141.26 78.58 141.74 85.44 148.94 85.44 148.94 92.64 141.67 92.64 141.19 99.5 148.94 99.5 148.94 112.06 156.2 112.06"/><path class="cls-1" d="M124.55,104.38c3.12,0,5.88-.65,8.25-1.94s4.2-3.1,5.47-5.43c1.27-2.33,1.9-4.99,1.9-7.98s-.63-5.65-1.9-7.98c-1.27-2.33-3.09-4.14-5.47-5.43s-5.13-1.94-8.25-1.94-5.86.65-8.22,1.94c-2.35,1.29-4.17,3.1-5.43,5.43-1.27,2.33-1.9,4.99-1.9,7.98s.63,5.65,1.9,7.98c1.27,2.33,3.08,4.14,5.43,5.43,2.35,1.29,5.09,1.94,8.22,1.94ZM118.48,82.55c1.52-1.56,3.54-2.34,6.08-2.34s4.49.78,6.01,2.34c1.52,1.56,2.27,3.73,2.27,6.49s-.76,4.94-2.27,6.52c-1.52,1.59-3.52,2.38-6.01,2.38s-4.51-.79-6.04-2.38c-1.54-1.58-2.31-3.76-2.31-6.52s.76-4.92,2.28-6.49Z"/><polygon class="cls-1" points="207.95 98.48 207.95 74.37 164.56 74.37 164.56 81.5 200.35 81.5 200.35 98.48 207.95 98.48"/><polygon class="cls-1" points="161.43 109.61 182.21 109.61 182.21 126.73 189.82 126.73 189.82 109.61 211.21 109.61 211.21 102.35 161.43 102.35 161.43 109.61"/><polygon class="cls-1" points="243.81 116.07 243.81 102.62 236.41 102.62 236.41 116.07 215.22 116.07 215.22 123.27 265 123.27 265 116.07 243.81 116.07"/><path class="cls-1" d="M216.24,105.54c4.53,0,8.84-1.27,12.94-3.8,4.1-2.54,7.57-6,10.42-10.39l20.85,14.33,3.87-6.25-21.33-14.19c1.31-2.99,2.33-6.5,3.06-10.53l-7.54-1.29c-.73,4.66-2.2,8.89-4.42,12.67-2.22,3.78-4.89,6.75-8.01,8.9-3.12,2.15-6.41,3.23-9.85,3.23v7.33Z"/><polygon class="cls-1" points="216.52 45.84 219.26 52.16 220.73 52.16 223.47 45.74 223.47 52.16 225.12 52.16 225.12 42.23 223.47 42.23 219.99 50.4 216.52 42.23 214.87 42.23 214.87 52.16 216.52 52.16 216.52 45.84"/><polygon class="cls-1" points="205.32 43.88 208.62 43.88 208.62 52.16 210.38 52.16 210.38 43.88 213.68 43.88 213.68 42.23 205.32 42.23 205.32 43.88"/></g></svg>